<svg xmlns="http://www.w3.org/2000/svg" width="78.768" height="79.999" viewBox="0 0 78.768 79.999">
  <g id="Group_51" data-name="Group 51" transform="translate(-27 131.5)">
    <path id="Icon_material-person" data-name="Icon material-person" d="M20.769,20.769a7.385,7.385,0,1,0-7.385-7.385A7.382,7.382,0,0,0,20.769,20.769Zm0,3.692C15.84,24.461,6,26.935,6,31.846v3.692H35.538V31.846C35.538,26.935,25.7,24.461,20.769,24.461Z" transform="translate(45.615 -111.514)" fill="#fff"/>
    <g id="Ellipse_7" data-name="Ellipse 7" transform="translate(31.668 -123.331)" fill="none" stroke="#fff" stroke-width="5">
      <circle cx="33.844" cy="33.844" r="33.844" stroke="none"/>
      <circle cx="33.844" cy="33.844" r="31.344" fill="none"/>
    </g>
    <line id="Line_49" data-name="Line 49" y2="17.231" transform="translate(66.384 -131.5)" fill="none" stroke="#fff" stroke-width="5"/>
    <line id="Line_50" data-name="Line 50" y2="17.231" transform="translate(66.384 -68.732)" fill="none" stroke="#fff" stroke-width="5"/>
    <line id="Line_51" data-name="Line 51" y2="17.231" transform="translate(105.768 -91.5) rotate(90)" fill="none" stroke="#fff" stroke-width="5"/>
    <line id="Line_52" data-name="Line 52" y2="17.231" transform="translate(44.231 -91.5) rotate(90)" fill="none" stroke="#fff" stroke-width="5"/>
  </g>
</svg>
