<svg xmlns="http://www.w3.org/2000/svg" width="22.685" height="22.685" viewBox="0 0 22.685 22.685">
  <g id="Icon_feather-instagram" data-name="Icon feather-instagram" transform="translate(1.5 1.5)">
    <path id="Path_57" data-name="Path 57" d="M7.921,3h9.842a4.921,4.921,0,0,1,4.921,4.921v9.842a4.921,4.921,0,0,1-4.921,4.921H7.921A4.921,4.921,0,0,1,3,17.764V7.921A4.921,4.921,0,0,1,7.921,3Z" transform="translate(-3 -3)" fill="none" stroke="#65676b" stroke-linecap="round" stroke-linejoin="round" stroke-width="3"/>
    <path id="Path_58" data-name="Path 58" d="M19.9,15.294a3.937,3.937,0,1,1-3.317-3.317A3.937,3.937,0,0,1,19.9,15.294Z" transform="translate(-6.117 -6.072)" fill="none" stroke="#65676b" stroke-linecap="round" stroke-linejoin="round" stroke-width="3"/>
    <path id="Path_59" data-name="Path 59" d="M26.25,9.75h0" transform="translate(-10.994 -5.321)" fill="none" stroke="#65676b" stroke-linecap="round" stroke-linejoin="round" stroke-width="3"/>
  </g>
</svg>
