<svg xmlns="http://www.w3.org/2000/svg" width="23.622" height="23.622" viewBox="0 0 23.622 23.622">
  <path id="Icon_awesome-link" data-name="Icon awesome-link" d="M15.069,8.553a7.009,7.009,0,0,1,.017,9.9l-.017.017-3.1,3.1a7.013,7.013,0,0,1-9.917-9.917L3.763,9.942a.738.738,0,0,1,1.259.489,8.5,8.5,0,0,0,.447,2.432.743.743,0,0,1-.175.766l-.6.6a3.322,3.322,0,1,0,4.668,4.728l3.1-3.1a3.321,3.321,0,0,0,0-4.7,3.456,3.456,0,0,0-.477-.4.74.74,0,0,1-.321-.582,1.838,1.838,0,0,1,.54-1.375l.971-.971a.741.741,0,0,1,.95-.08,7.035,7.035,0,0,1,.947.793Zm6.5-6.5a7.021,7.021,0,0,0-9.917,0l-3.1,3.1-.017.017A7.014,7.014,0,0,0,9.5,15.862a.741.741,0,0,0,.95-.08l.971-.971a1.838,1.838,0,0,0,.54-1.375.74.74,0,0,0-.321-.582,3.456,3.456,0,0,1-.477-.4,3.321,3.321,0,0,1,0-4.7l3.1-3.1a3.322,3.322,0,1,1,4.668,4.728l-.6.6a.743.743,0,0,0-.175.766,8.5,8.5,0,0,1,.447,2.432.738.738,0,0,0,1.259.489l1.712-1.712a7.02,7.02,0,0,0,0-9.917Z" transform="translate(0 0)" fill="#65676b"/>
</svg>
