<svg xmlns="http://www.w3.org/2000/svg" width="92.979" height="55.808" viewBox="0 0 92.979 55.808">
  <path id="Icon_awesome-handshake" data-name="Icon awesome-handshake" d="M63.153,4.5H50.674a4.647,4.647,0,0,0-3.138,1.22L33.255,18.8c-.015.015-.029.044-.044.058a5.779,5.779,0,0,0-.305,8.136,6.059,6.059,0,0,0,8.15.392c.015-.015.044-.015.058-.029L52.722,16.718a2.324,2.324,0,1,1,3.138,3.429l-3.792,3.472L73.221,40.791a10.468,10.468,0,0,1,1.148,1.119V13.8L66.436,5.866A4.615,4.615,0,0,0,63.153,4.5Zm15.879,9.327V46.355A4.644,4.644,0,0,0,83.681,51h9.3V13.827Zm6.973,32.528a2.324,2.324,0,1,1,2.324-2.324A2.331,2.331,0,0,1,86.006,46.355ZM0,50.99H9.3a4.644,4.644,0,0,0,4.649-4.649V13.827H0Zm6.973-9.283a2.324,2.324,0,1,1-2.324,2.324A2.331,2.331,0,0,1,6.973,41.706Zm63.327,2.7L48.611,26.8l-4.358,4A10.457,10.457,0,0,1,30.116,15.381L42,4.5H29.826a4.641,4.641,0,0,0-3.283,1.366L18.6,13.8V46.326h2.659L34.4,58.224a9.3,9.3,0,0,0,13.075-1.351l.029-.029,2.6,2.252a5.4,5.4,0,0,0,7.6-.785L62.267,52.7l.785.639a4.642,4.642,0,0,0,6.538-.683l1.38-1.7a4.657,4.657,0,0,0-.668-6.552Z" transform="translate(0 -4.5)" fill="#fff"/>
</svg>
