<svg xmlns="http://www.w3.org/2000/svg" width="64.829" height="71.589" viewBox="0 0 64.829 71.589">
  <path id="Icon_simple-webpack" data-name="Icon simple-webpack" d="M66.335,57.749,37.193,74.161V61.378L55.35,51.434l10.985,6.315Zm1.993-1.8V21.628L57.664,27.756V49.817Zm-62.836,1.8L34.635,74.161V61.378L16.478,51.434,5.493,57.749ZM3.5,55.952V21.628l10.664,6.128V49.817L3.5,55.952ZM4.747,19.407,34.635,2.572V14.931L15.488,25.417l-.146.083L4.747,19.407Zm62.334,0L37.193,2.572V14.931L56.34,25.417l.146.083,10.594-6.093ZM34.635,58.471,16.722,48.665V29.234l17.913,10.3V58.471Zm2.558,0,17.913-9.806V29.234l-17.913,10.3V58.471ZM17.935,26.985l17.983-9.848L53.9,26.985,35.917,37.326Z" transform="translate(-3.5 -2.572)" fill="#fff"/>
</svg>
