<svg xmlns="http://www.w3.org/2000/svg" xmlns:xlink="http://www.w3.org/1999/xlink" width="1046.622" height="64.389" viewBox="0 0 1046.622 64.389">
  <defs>
    <linearGradient id="linear-gradient" x1="0.305" y1="0.699" x2="0.659" y2="0.5" gradientUnits="objectBoundingBox">
      <stop offset="0" stop-color="#ff0702"/>
      <stop offset="1" stop-color="#ff5818"/>
    </linearGradient>
  </defs>
  <path id="Path_10" data-name="Path 10" d="M41.83,0H35.836l-4.9-12.955H11.344L6.735,0H.709L18.434-46.213h5.607ZM29.165-17.821l-7.251-19.69a18.854,18.854,0,0,1-.709-3.094h-.129a17.261,17.261,0,0,1-.741,3.094l-7.187,19.69ZM76.087,0H70.8V-5.607h-.129Q67,.773,59.329.773a12.326,12.326,0,0,1-9.942-4.431q-3.722-4.431-3.722-12.069,0-8.186,4.125-13.116a13.605,13.605,0,0,1,10.989-4.931q6.8,0,9.894,5.35H70.8V-48.855h5.285ZM70.8-14.921v-4.866a9.441,9.441,0,0,0-2.643-6.768,8.863,8.863,0,0,0-6.7-2.771,9.126,9.126,0,0,0-7.605,3.545q-2.771,3.545-2.771,9.8,0,5.7,2.659,9.007a8.69,8.69,0,0,0,7.138,3.3,9.027,9.027,0,0,0,7.17-3.19A11.886,11.886,0,0,0,70.8-14.921ZM112.729-33,99.58,0H94.392l-12.5-33h5.8L96.067-9.023a21.52,21.52,0,0,1,1.16,4.608h.129a21.792,21.792,0,0,1,1.031-4.479L107.153-33ZM142.022,0h-5.285V-5.156h-.129A11.065,11.065,0,0,1,126.457.773q-4.931,0-7.718-2.61a9.044,9.044,0,0,1-2.788-6.929q0-9.249,10.893-10.764l9.894-1.386q0-8.411-6.8-8.411a16.246,16.246,0,0,0-10.764,4.061V-30.68a20.451,20.451,0,0,1,11.215-3.094q11.634,0,11.634,12.311Zm-5.285-16.693-7.96,1.1a12.924,12.924,0,0,0-5.543,1.821q-1.869,1.305-1.869,4.625A5.037,5.037,0,0,0,123.089-5.2a6.662,6.662,0,0,0,4.592,1.531,8.483,8.483,0,0,0,6.494-2.755,9.845,9.845,0,0,0,2.562-6.977ZM179.373,0h-5.285V-18.82q0-10.506-7.67-10.506a8.32,8.32,0,0,0-6.558,2.981,11.049,11.049,0,0,0-2.594,7.525V0H151.98V-33h5.285v5.479h.129a11.91,11.91,0,0,1,10.828-6.252q5.414,0,8.282,3.5t2.868,10.1Zm32.452-1.515A17.173,17.173,0,0,1,202.8.773,14.939,14.939,0,0,1,191.41-3.819q-4.334-4.592-4.334-11.908,0-8.153,4.673-13.1t12.472-4.947a17.36,17.36,0,0,1,7.67,1.611v5.414a13.438,13.438,0,0,0-7.863-2.578,10.626,10.626,0,0,0-8.3,3.625,13.757,13.757,0,0,0-3.239,9.523q0,5.8,3.045,9.152A10.5,10.5,0,0,0,203.7-3.674a13.246,13.246,0,0,0,8.121-2.868ZM246.34-15.179h-23.3q.129,5.511,2.965,8.508a10.221,10.221,0,0,0,7.8,3,16.214,16.214,0,0,0,10.248-3.674v4.963Q239.7.773,232.547.773q-6.993,0-10.989-4.5t-4-12.649q0-7.7,4.367-12.552a14,14,0,0,1,10.844-4.85q6.478,0,10.022,4.189T246.34-17.95Zm-5.414-4.479a10.753,10.753,0,0,0-2.208-7.122,7.521,7.521,0,0,0-6.042-2.546,8.537,8.537,0,0,0-6.349,2.675,12.139,12.139,0,0,0-3.223,6.993Zm36.9,14.889H277.7V15.179h-5.285V-33H277.7v5.8h.129a12.5,12.5,0,0,1,11.408-6.574,12.085,12.085,0,0,1,9.958,4.431q3.577,4.431,3.577,11.875,0,8.282-4.028,13.261A13.412,13.412,0,0,1,287.719.773,11.04,11.04,0,0,1,277.825-4.77Zm-.129-13.31v4.608a9.812,9.812,0,0,0,2.659,6.945,8.828,8.828,0,0,0,6.751,2.852,8.846,8.846,0,0,0,7.525-3.674q2.723-3.674,2.723-10.216,0-5.511-2.546-8.637a8.425,8.425,0,0,0-6.9-3.126A9.364,9.364,0,0,0,280.5-26.12,11.774,11.774,0,0,0,277.7-18.079Zm50.725-9.571a6.463,6.463,0,0,0-4-1.063,6.745,6.745,0,0,0-5.656,3.19q-2.272,3.19-2.272,8.7V0h-5.285V-33H316.5v6.8h.129a11.523,11.523,0,0,1,3.448-5.43,7.863,7.863,0,0,1,5.188-1.95,8.628,8.628,0,0,1,3.158.451ZM347.95.773q-7.315,0-11.682-4.625T331.9-16.113q0-8.314,4.544-12.987t12.278-4.673q7.38,0,11.521,4.544t4.141,12.6q0,7.9-4.463,12.649T347.95.773Zm.387-30.1a10.053,10.053,0,0,0-8.057,3.464q-2.965,3.464-2.965,9.555,0,5.865,3,9.249a10.186,10.186,0,0,0,8.024,3.384q5.124,0,7.879-3.319t2.755-9.442q0-6.187-2.755-9.539A9.619,9.619,0,0,0,348.337-29.326Zm29.777,27.94q0,8.121-3.271,12.52a10.964,10.964,0,0,1-9.362,4.4A9.937,9.937,0,0,1,361.1,14.5V9.571a8.745,8.745,0,0,0,4.512,1.45q7.219,0,7.219-11.537V-33h5.285Zm-2.578-39.993a3.349,3.349,0,0,1-2.417-.967,3.263,3.263,0,0,1-1-2.449,3.316,3.316,0,0,1,1-2.465,3.32,3.32,0,0,1,2.417-.983A3.413,3.413,0,0,1,378-47.26a3.289,3.289,0,0,1,1.015,2.465A3.266,3.266,0,0,1,378-42.378,3.384,3.384,0,0,1,375.536-41.379Zm39.8,26.2h-23.3q.129,5.511,2.965,8.508a10.221,10.221,0,0,0,7.8,3,16.214,16.214,0,0,0,10.248-3.674v4.963Q408.7.773,401.543.773q-6.993,0-10.989-4.5t-4-12.649q0-7.7,4.367-12.552a14,14,0,0,1,10.844-4.85q6.478,0,10.022,4.189t3.545,11.634Zm-5.414-4.479a10.753,10.753,0,0,0-2.208-7.122,7.521,7.521,0,0,0-6.042-2.546,8.537,8.537,0,0,0-6.349,2.675,12.139,12.139,0,0,0-3.223,6.993Zm35.9,18.144A17.173,17.173,0,0,1,436.8.773a14.939,14.939,0,0,1-11.392-4.592q-4.334-4.592-4.334-11.908,0-8.153,4.673-13.1t12.472-4.947a17.36,17.36,0,0,1,7.67,1.611v5.414a13.438,13.438,0,0,0-7.863-2.578,10.626,10.626,0,0,0-8.3,3.625,13.757,13.757,0,0,0-3.239,9.523q0,5.8,3.045,9.152A10.5,10.5,0,0,0,437.7-3.674a13.246,13.246,0,0,0,8.121-2.868Zm23.3,1.192A10.19,10.19,0,0,1,464.191.709q-8.669,0-8.669-9.668V-28.488h-5.672V-33h5.672v-8.057l5.285-1.708V-33h8.314v4.512h-8.314V-9.894q0,3.319,1.128,4.737a4.5,4.5,0,0,0,3.738,1.418,5.556,5.556,0,0,0,3.448-1.1ZM541.116,0h-5.285V-18.949q0-5.479-1.692-7.928t-5.688-2.449a7.044,7.044,0,0,0-5.752,3.094,11.835,11.835,0,0,0-2.369,7.412V0h-5.285V-19.594q0-9.732-7.509-9.732A6.956,6.956,0,0,0,501.8-26.41a12.056,12.056,0,0,0-2.256,7.589V0h-5.285V-33h5.285v5.221h.129a11.212,11.212,0,0,1,10.248-5.994,9.555,9.555,0,0,1,5.9,1.885,9.483,9.483,0,0,1,3.448,4.947q3.674-6.832,10.957-6.832,10.893,0,10.893,13.438Zm33.612,0h-5.285V-5.156h-.129A11.065,11.065,0,0,1,559.163.773q-4.931,0-7.718-2.61a9.044,9.044,0,0,1-2.788-6.929q0-9.249,10.893-10.764l9.894-1.386q0-8.411-6.8-8.411a16.246,16.246,0,0,0-10.764,4.061V-30.68a20.451,20.451,0,0,1,11.215-3.094q11.634,0,11.634,12.311Zm-5.285-16.693-7.96,1.1a12.924,12.924,0,0,0-5.543,1.821q-1.869,1.305-1.869,4.625A5.037,5.037,0,0,0,555.8-5.2a6.662,6.662,0,0,0,4.592,1.531,8.483,8.483,0,0,0,6.494-2.755,9.845,9.845,0,0,0,2.562-6.977ZM612.079,0h-5.285V-18.82q0-10.506-7.67-10.506a8.32,8.32,0,0,0-6.558,2.981,11.049,11.049,0,0,0-2.594,7.525V0h-5.285V-33h5.285v5.479h.129a11.91,11.91,0,0,1,10.828-6.252q5.414,0,8.282,3.5t2.868,10.1Zm33.58,0h-5.285V-5.156h-.129A11.065,11.065,0,0,1,630.094.773q-4.931,0-7.718-2.61a9.044,9.044,0,0,1-2.788-6.929q0-9.249,10.893-10.764l9.894-1.386q0-8.411-6.8-8.411a16.246,16.246,0,0,0-10.764,4.061V-30.68a20.451,20.451,0,0,1,11.215-3.094q11.634,0,11.634,12.311Zm-5.285-16.693-7.96,1.1a12.924,12.924,0,0,0-5.543,1.821Q625-12.472,625-9.152A5.037,5.037,0,0,0,626.726-5.2a6.662,6.662,0,0,0,4.592,1.531,8.483,8.483,0,0,0,6.494-2.755,9.845,9.845,0,0,0,2.562-6.977ZM683.783-2.643q0,18.176-17.4,18.176a23.366,23.366,0,0,1-10.7-2.32V7.928a21.974,21.974,0,0,0,10.635,3.094q12.182,0,12.182-12.955V-5.543h-.129A12.359,12.359,0,0,1,667.025.773a12.388,12.388,0,0,1-9.91-4.4q-3.754-4.4-3.754-11.811,0-8.411,4.044-13.374a13.511,13.511,0,0,1,11.07-4.963q6.671,0,9.894,5.35h.129V-33h5.285ZM678.5-14.921v-4.866a9.441,9.441,0,0,0-2.659-6.735,8.753,8.753,0,0,0-6.623-2.8,9.177,9.177,0,0,0-7.67,3.561q-2.771,3.561-2.771,9.974a13.645,13.645,0,0,0,2.659,8.814,8.59,8.59,0,0,0,7.042,3.3,9.2,9.2,0,0,0,7.235-3.158A11.772,11.772,0,0,0,678.5-14.921ZM721-15.179h-23.3q.129,5.511,2.965,8.508a10.221,10.221,0,0,0,7.8,3,16.214,16.214,0,0,0,10.248-3.674v4.963Q714.366.773,707.212.773q-6.993,0-10.989-4.5t-4-12.649q0-7.7,4.367-12.552a14,14,0,0,1,10.844-4.85q6.478,0,10.022,4.189T721-17.95Zm-5.414-4.479a10.753,10.753,0,0,0-2.208-7.122,7.521,7.521,0,0,0-6.042-2.546,8.537,8.537,0,0,0-6.349,2.675,12.139,12.139,0,0,0-3.223,6.993ZM775.854,0h-5.285V-18.949q0-5.479-1.692-7.928t-5.688-2.449a7.044,7.044,0,0,0-5.752,3.094,11.835,11.835,0,0,0-2.369,7.412V0h-5.285V-19.594q0-9.732-7.509-9.732a6.956,6.956,0,0,0-5.736,2.917,12.056,12.056,0,0,0-2.256,7.589V0H729V-33h5.285v5.221h.129a11.212,11.212,0,0,1,10.248-5.994,9.555,9.555,0,0,1,5.9,1.885A9.483,9.483,0,0,1,754-26.941q3.674-6.832,10.957-6.832,10.893,0,10.893,13.438Zm36.513-15.179h-23.3q.129,5.511,2.965,8.508a10.221,10.221,0,0,0,7.8,3,16.214,16.214,0,0,0,10.248-3.674v4.963Q805.729.773,798.574.773q-6.993,0-10.989-4.5t-4-12.649q0-7.7,4.367-12.552a14,14,0,0,1,10.844-4.85q6.478,0,10.022,4.189t3.545,11.634Zm-5.414-4.479a10.753,10.753,0,0,0-2.208-7.122,7.521,7.521,0,0,0-6.042-2.546,8.537,8.537,0,0,0-6.349,2.675,12.139,12.139,0,0,0-3.223,6.993ZM847.752,0h-5.285V-18.82q0-10.506-7.67-10.506a8.32,8.32,0,0,0-6.558,2.981,11.049,11.049,0,0,0-2.594,7.525V0h-5.285V-33h5.285v5.479h.129A11.91,11.91,0,0,1,836.6-33.773q5.414,0,8.282,3.5t2.868,10.1Zm25.266-.322A10.19,10.19,0,0,1,868.087.709q-8.669,0-8.669-9.668V-28.488h-5.672V-33h5.672v-8.057l5.285-1.708V-33h8.314v4.512H864.7V-9.894q0,3.319,1.128,4.737a4.5,4.5,0,0,0,3.738,1.418,5.556,5.556,0,0,0,3.448-1.1Zm40.444,0A10.19,10.19,0,0,1,908.531.709q-8.669,0-8.669-9.668V-28.488H894.19V-33h5.672v-8.057l5.285-1.708V-33h8.314v4.512h-8.314V-9.894q0,3.319,1.128,4.737a4.5,4.5,0,0,0,3.738,1.418,5.556,5.556,0,0,0,3.448-1.1Zm20.851,1.1Q927,.773,922.63-3.851t-4.367-12.262q0-8.314,4.544-12.987t12.278-4.673q7.38,0,11.521,4.544t4.141,12.6q0,7.9-4.463,12.649T934.313.773Zm.387-30.1a10.053,10.053,0,0,0-8.057,3.464q-2.965,3.464-2.965,9.555,0,5.865,3,9.249A10.186,10.186,0,0,0,934.7-3.674q5.124,0,7.879-3.319t2.755-9.442q0-6.187-2.755-9.539A9.619,9.619,0,0,0,934.7-29.326ZM972.984.773q-7.315,0-11.682-4.625t-4.367-12.262q0-8.314,4.544-12.987t12.278-4.673q7.38,0,11.521,4.544t4.141,12.6q0,7.9-4.463,12.649T972.984.773Zm.387-30.1a10.053,10.053,0,0,0-8.057,3.464q-2.965,3.464-2.965,9.555,0,5.865,3,9.249a10.186,10.186,0,0,0,8.024,3.384q5.124,0,7.879-3.319t2.755-9.442q0-6.187-2.755-9.539A9.619,9.619,0,0,0,973.371-29.326ZM1003.148,0h-5.285V-48.855h5.285Zm8.7-1.192V-6.864a15.641,15.641,0,0,0,9.507,3.19q6.961,0,6.961-4.641a4.027,4.027,0,0,0-.6-2.24,5.942,5.942,0,0,0-1.611-1.627,12.4,12.4,0,0,0-2.385-1.273q-1.37-.564-2.949-1.176a37.977,37.977,0,0,1-3.851-1.756,11.634,11.634,0,0,1-2.771-2,7.435,7.435,0,0,1-1.676-2.53,8.95,8.95,0,0,1-.564-3.319,7.885,7.885,0,0,1,1.063-4.109,9.43,9.43,0,0,1,2.836-3,13.224,13.224,0,0,1,4.044-1.821,17.94,17.94,0,0,1,4.689-.612,18.933,18.933,0,0,1,7.67,1.482v5.35a14.948,14.948,0,0,0-8.379-2.385,9.794,9.794,0,0,0-2.675.338,6.548,6.548,0,0,0-2.046.951,4.392,4.392,0,0,0-1.321,1.466,3.863,3.863,0,0,0-.467,1.885,4.521,4.521,0,0,0,.467,2.159,4.753,4.753,0,0,0,1.37,1.547,10.469,10.469,0,0,0,2.191,1.225q1.289.548,2.933,1.192a40.815,40.815,0,0,1,3.932,1.724,13.485,13.485,0,0,1,2.965,2,7.807,7.807,0,0,1,1.885,2.562,8.263,8.263,0,0,1,.661,3.448,8.13,8.13,0,0,1-1.08,4.254,9.252,9.252,0,0,1-2.884,3A13.21,13.21,0,0,1,1025.61.193a20.526,20.526,0,0,1-4.931.58A18.723,18.723,0,0,1,1011.85-1.192Zm31.84-25.362a3.421,3.421,0,0,1-2.53-1.063,3.5,3.5,0,0,1-1.047-2.546,3.394,3.394,0,0,1,1.047-2.514,3.474,3.474,0,0,1,2.53-1.031,3.567,3.567,0,0,1,2.578,1.031,3.369,3.369,0,0,1,1.063,2.514,3.474,3.474,0,0,1-1.063,2.546A3.511,3.511,0,0,1,1043.689-26.555Zm0,27.264a3.421,3.421,0,0,1-2.53-1.063,3.5,3.5,0,0,1-1.047-2.546,3.554,3.554,0,0,1,1.047-2.562,3.4,3.4,0,0,1,2.53-1.08,3.485,3.485,0,0,1,2.578,1.08,3.527,3.527,0,0,1,1.063,2.562,3.474,3.474,0,0,1-1.063,2.546A3.511,3.511,0,0,1,1043.689.709Z" transform="translate(-0.709 48.855)" fill="url(#linear-gradient)"/>
</svg>
