<svg xmlns="http://www.w3.org/2000/svg" width="21.772" height="17.716" viewBox="0 0 21.772 17.716">
  <path id="Icon_ionic-logo-twitter" data-name="Icon ionic-logo-twitter" d="M23.185,6.6a9.03,9.03,0,0,1-2.565.706,4.482,4.482,0,0,0,1.965-2.473,8.876,8.876,0,0,1-2.837,1.084A4.465,4.465,0,0,0,12.02,8.971a4.373,4.373,0,0,0,.115,1.02A12.659,12.659,0,0,1,2.927,5.317a4.476,4.476,0,0,0,1.389,5.97,4.363,4.363,0,0,1-2.03-.558v.055A4.471,4.471,0,0,0,5.87,15.167a4.5,4.5,0,0,1-1.176.157,4.214,4.214,0,0,1-.84-.083,4.474,4.474,0,0,0,4.175,3.1,8.956,8.956,0,0,1-5.55,1.915A9.054,9.054,0,0,1,1.413,20.2a12.485,12.485,0,0,0,6.837,2.021A12.633,12.633,0,0,0,20.97,9.492c0-.194,0-.388-.014-.577A9.093,9.093,0,0,0,23.185,6.6Z" transform="translate(-1.413 -4.5)" fill="#65676b"/>
</svg>
