<svg xmlns="http://www.w3.org/2000/svg" width="69.749" height="61.999" viewBox="0 0 69.749 61.999">
  <path id="Icon_awesome-person-booth" data-name="Icon awesome-person-booth" d="M23.25,60.062A1.943,1.943,0,0,0,25.187,62h3.875A1.943,1.943,0,0,0,31,60.062V38.749H23.25Zm3.875-32.937H20.961l-5.473-5.485a7.7,7.7,0,0,0-5.473-2.264H7.75A7.752,7.752,0,0,0,0,27.137L.024,38.749,0,58.124a3.869,3.869,0,1,0,7.738,0L7.75,45.93c.109.061.194.157.3.206l3.524,5.207v6.781a3.875,3.875,0,1,0,7.75,0V51.282a7.783,7.783,0,0,0-.811-3.463L13.526,40.4v-9.76l2.531,2.531a5.762,5.762,0,0,0,4.105,1.707h6.963a3.875,3.875,0,1,0,0-7.75ZM7.75,15.5A5.812,5.812,0,1,0,1.937,9.687,5.814,5.814,0,0,0,7.75,15.5ZM34.875,3.875l3.814,27.016L34.947,49.611a3.875,3.875,0,0,0,3.8,4.638c1.841,0,3.391-1.1,3.911-3.681a3.859,3.859,0,0,0,7.714-.194,3.875,3.875,0,1,0,7.75,0V0H34.875Zm-11.625,0V23.25H31V0H27.125A3.871,3.871,0,0,0,23.25,3.875ZM65.874,0H62V60.062A1.943,1.943,0,0,0,63.937,62h3.875a1.943,1.943,0,0,0,1.937-1.937V3.875A3.871,3.871,0,0,0,65.874,0Z" fill="#fff"/>
</svg>
